# xmcd
#
# Track frame offsets:
#	150
#	20270
#	32302
#	52668
#	66234
#	85905
#	105348
#	123603
#	139222
#	158779
#	175896
#	194286
#	212469
#	230589
#	250717
#	264507
#	279927
#
# Disc length: 3991 seconds
#
# Revision: 0
# Processed by: cddbd v1.5.2PL0 Copyright (c) Steve Scherf et al.
# Submitted via: EZCDAudioConverter 2.1.7.1
#
DISCID=da0f9511
DTITLE=Sunburst - Ave Africa 2/2
DYEAR=1900
DGENRE=
TTITLE0=Simba Anguruma
TTITLE1=Kipato Sina
TTITLE2=Vijana
TTITLE3=Banchikicha
TTITLE4=Black Is Beautiful
TTITLE5=Mai Wetu Mai
TTITLE6=Enzi Za Utumwani
TTITLE7=Let's Live Together
TTITLE8=Matatizo Nyumbani
TTITLE9=K.K. Of Zambia
TTITLE10=Instrumental
TTITLE11=Simba Anguruma
TTITLE12=Enzi Za Utumwani
TTITLE13=Black Is Beautiful
TTITLE14=Wakulu Wa Kuno
TTITLE15=Get A Little Older
TTITLE16=Kosa Langu Mpenzi
EXTD=
EXTT0=
EXTT1=
EXTT2=
EXTT3=
EXTT4=
EXTT5=
EXTT6=
EXTT7=
EXTT8=
EXTT9=
EXTT10=
EXTT11=
EXTT12=
EXTT13=
EXTT14=
EXTT15=
EXTT16=
PLAYORDER=
